# xmcd
#
# Track frame offsets:
#	150
#	17567
#	49002
#
# Disc length: 903 seconds
# Revision: 0
# Processed by: cddbd v1.5.2PL0 Copyright (c) Steve Scherf et al.
# Submitted via: dBpowerAMP V12.0
#
DISCID=19038503
DTITLE=Sybil - Make It Easy On Me
DYEAR=1990
DGENRE=R&B
TTITLE0=Make It Easy On Me [PWL Radio Mix]
TTITLE1=Make It Easy On Me [U.K. Mix]
TTITLE2=Living For The Moment [Vocal Version]
EXTD=
EXTT0=
EXTT1=
EXTT2=
PLAYORDER=
